<svg width="230" height="44" viewBox="0 0 230 44" fill="none" xmlns="http://www.w3.org/2000/svg">
<path d="M48.2286 3.88326C44.52 2.18884 40.5815 0.953906 36.4704 0.264648C35.9529 1.15495 35.3779 2.36114 34.9754 3.30888C30.6028 2.67705 26.2617 2.67705 21.9494 3.30888C21.5469 2.36114 20.9432 1.15495 20.4544 0.264648C16.3147 0.953906 12.3761 2.18884 8.69344 3.88326C1.24757 14.854 -0.764843 25.5662 0.241359 36.1348C5.18611 39.7247 9.95843 41.9075 14.6473 43.3435C15.7973 41.7926 16.8322 40.1268 17.7234 38.375C16.0273 37.7432 14.4173 36.9677 12.8649 36.0486C13.2674 35.7616 13.6699 35.4457 14.0436 35.1298C23.4157 39.409 33.5668 39.409 42.8238 35.1298C43.2263 35.4457 43.6 35.7616 44.0025 36.0486C42.45 36.9677 40.8402 37.7432 39.144 38.375C40.0352 40.1268 41.0702 41.7926 42.22 43.3435C46.9061 41.9075 51.7072 39.7247 56.626 36.1348C57.8621 23.9006 54.6682 13.2745 48.2286 3.88326ZM19.0171 29.6156C16.1997 29.6156 13.8998 27.0597 13.8998 23.9293C13.8998 20.7989 16.1422 18.2428 19.0171 18.2428C21.8632 18.2428 24.1917 20.7989 24.1342 23.9293C24.1342 27.0597 21.8632 29.6156 19.0171 29.6156ZM37.9079 29.6156C35.0904 29.6156 32.7876 27.0597 32.7876 23.9293C32.7876 20.7989 35.0329 18.2428 37.9079 18.2428C40.754 18.2428 43.0825 20.7989 43.025 23.9293C43.025 27.0597 40.7827 29.6156 37.9079 29.6156Z" fill="white"/>
<path d="M76.5486 9.28125H88.7698C91.7021 9.28125 94.2032 9.74069 96.2444 10.6597C98.2855 11.5788 99.8092 12.8425 100.815 14.4794C101.822 16.1165 102.339 17.9831 102.339 20.1084C102.339 22.1761 101.822 24.043 100.758 25.7373C99.6942 27.4031 98.0844 28.7528 95.9282 29.7293C93.7721 30.7058 91.0984 31.194 87.9073 31.194H76.5486V9.28125ZM87.7636 25.6224C89.7471 25.6224 91.2709 25.1342 92.3346 24.1291C93.3984 23.1526 93.9446 21.7741 93.9446 20.0797C93.9446 18.5001 93.4559 17.2364 92.5071 16.2888C91.5584 15.341 90.1211 14.8528 88.1948 14.8528H84.3712V25.6224H87.7636Z" fill="white"/>
<path d="M121.374 31.167C119.677 30.7361 118.154 30.1043 116.803 29.2427V24.0444C117.838 24.8486 119.189 25.4805 120.914 25.9974C122.638 26.5144 124.306 26.7729 125.916 26.7729C126.663 26.7729 127.238 26.6867 127.612 26.4857C127.986 26.2846 128.187 26.0549 128.187 25.7677C128.187 25.4517 128.072 25.1933 127.871 24.9922C127.669 24.7912 127.267 24.6188 126.663 24.4465L122.897 23.6138C120.741 23.1256 119.217 22.4075 118.297 21.5459C117.378 20.6843 116.946 19.507 116.946 18.0709C116.946 16.8647 117.349 15.8022 118.125 14.9118C118.93 14.0215 120.051 13.3322 121.517 12.844C122.983 12.3559 124.68 12.0974 126.663 12.0974C128.417 12.0974 130.027 12.2697 131.493 12.6718C132.959 13.045 134.167 13.5333 135.115 14.1077V19.0187C134.138 18.4443 132.988 17.9848 131.723 17.6401C130.429 17.2955 129.107 17.1231 127.756 17.1231C125.801 17.1231 124.823 17.4678 124.823 18.1284C124.823 18.4443 124.967 18.6741 125.283 18.8464C125.6 19.0187 126.146 19.1623 126.951 19.3346L130.084 19.909C132.126 20.2535 133.649 20.8854 134.655 21.7757C135.662 22.666 136.15 23.9583 136.15 25.7102C136.15 27.6058 135.317 29.1278 133.649 30.2192C131.982 31.3393 129.624 31.8848 126.577 31.8848C124.795 31.8273 123.07 31.5976 121.374 31.167Z" fill="white"/>
<path d="M143.915 30.507C142.133 29.6167 140.753 28.4393 139.862 26.9459C138.942 25.4524 138.51 23.7581 138.51 21.8625C138.51 19.9958 138.97 18.3013 139.919 16.8368C140.868 15.3433 142.248 14.1945 144.059 13.333C145.87 12.5001 148.055 12.0693 150.585 12.0693C153.718 12.0693 156.306 12.7299 158.376 14.0509V19.7661C157.657 19.2778 156.795 18.847 155.817 18.5598C154.84 18.2439 153.805 18.1003 152.712 18.1003C150.757 18.1003 149.263 18.4449 148.141 19.163C147.049 19.881 146.503 20.8 146.503 21.9487C146.503 23.0688 147.02 23.9878 148.113 24.7058C149.176 25.4237 150.729 25.797 152.741 25.797C153.776 25.797 154.811 25.6534 155.817 25.3375C156.823 25.0216 157.715 24.6771 158.433 24.2176V29.7603C156.133 31.1389 153.46 31.8282 150.441 31.8282C147.883 31.8282 145.726 31.3686 143.915 30.507Z" fill="white"/>
<path d="M166.572 30.507C164.761 29.6167 163.381 28.4393 162.432 26.9171C161.484 25.3949 160.995 23.7006 160.995 21.8051C160.995 19.9384 161.484 18.2439 162.432 16.7793C163.381 15.3146 164.761 14.1658 166.543 13.333C168.326 12.5001 170.482 12.0693 172.957 12.0693C175.43 12.0693 177.586 12.4714 179.368 13.333C181.15 14.1658 182.53 15.3146 183.479 16.7793C184.428 18.2439 184.888 19.9097 184.888 21.8051C184.888 23.6719 184.428 25.3949 183.479 26.9171C182.53 28.4393 181.179 29.6454 179.368 30.507C177.557 31.3686 175.43 31.8282 172.957 31.8282C170.51 31.8282 168.383 31.3686 166.572 30.507ZM176.091 24.9641C176.838 24.2176 177.241 23.1836 177.241 21.9487C177.241 20.6851 176.867 19.7086 176.091 18.9619C175.315 18.2152 174.28 17.8418 172.986 17.8418C171.635 17.8418 170.597 18.2152 169.821 18.9619C169.073 19.7086 168.671 20.6851 168.671 21.9487C168.671 23.2124 169.044 24.2176 169.821 24.9641C170.597 25.7396 171.635 26.113 172.986 26.113C174.28 26.0842 175.343 25.7109 176.091 24.9641Z" fill="white"/>
<path d="M204.121 13.217V19.9662C203.316 19.4492 202.281 19.1907 201.016 19.1907C199.349 19.1907 198.054 19.7077 197.164 20.7127C196.272 21.7179 195.812 23.2976 195.812 25.4227V31.1666H188.136V12.9011H195.669V18.7312C196.071 16.6059 196.761 15.0264 197.681 14.0212C198.601 13.016 199.809 12.4705 201.274 12.4705C202.367 12.4705 203.316 12.7289 204.121 13.217Z" fill="white"/>
<path d="M230 8.65039V31.1949H222.325V27.088C221.663 28.6389 220.685 29.8165 219.363 30.6205C218.038 31.4246 216.398 31.8267 214.443 31.8267C212.718 31.8267 211.196 31.3959 209.901 30.563C208.608 29.7303 207.603 28.5528 206.913 27.088C206.223 25.5947 205.878 23.9289 205.878 22.091C205.848 20.1667 206.223 18.4437 206.998 16.9215C207.746 15.3995 208.838 14.2219 210.218 13.3603C211.598 12.4987 213.178 12.0679 214.961 12.0679C218.613 12.0679 221.06 13.6475 222.325 16.8353V8.65039H230ZM221.175 24.8193C221.95 24.0725 222.353 23.0673 222.353 21.8612C222.353 20.6837 221.98 19.7359 221.203 19.0181C220.427 18.3001 219.392 17.9267 218.096 17.9267C216.801 17.9267 215.766 18.3001 214.991 19.0468C214.213 19.7934 213.841 20.7411 213.841 21.9474C213.841 23.1535 214.213 24.1013 214.991 24.848C215.766 25.5947 216.773 25.9681 218.066 25.9681C219.363 25.9681 220.398 25.5947 221.175 24.8193Z" fill="white"/>
<path d="M109.414 13.9933C111.619 13.9933 113.41 12.3858 113.41 10.4034C113.41 8.42061 111.619 6.81348 109.414 6.81348C107.206 6.81348 105.418 8.42061 105.418 10.4034C105.418 12.3858 107.206 13.9933 109.414 13.9933Z" fill="white"/>
<path d="M113.41 16.4612C110.966 17.5237 107.919 17.5524 105.418 16.4612V31.1941H113.41V16.4612Z" fill="white"/>
</svg>
