<svg width="82" height="24" viewBox="0 0 82 24" fill="none" xmlns="http://www.w3.org/2000/svg">
<path d="M19.82 2H4.18C2.97602 2 2 2.97602 2 4.18V19.82C2 21.024 2.97602 22 4.18 22H19.82C21.024 22 22 21.024 22 19.82V4.18C22 2.97602 21.024 2 19.82 2Z" stroke="black" stroke-linecap="round" stroke-linejoin="round"/>
<path d="M7 2V22" stroke="black" stroke-linecap="round" stroke-linejoin="round"/>
<path d="M17 2V22" stroke="black" stroke-linecap="round" stroke-linejoin="round"/>
<path d="M2 12H22" stroke="black" stroke-linecap="round" stroke-linejoin="round"/>
<path d="M2 7H7" stroke="black" stroke-linecap="round" stroke-linejoin="round"/>
<path d="M2 17H7" stroke="black" stroke-linecap="round" stroke-linejoin="round"/>
<path d="M17 17H22" stroke="black" stroke-linecap="round" stroke-linejoin="round"/>
<path d="M17 7H22" stroke="black" stroke-linecap="round" stroke-linejoin="round"/>
<path d="M42.4746 7.04688V17H41.1553V7.04688H42.4746ZM46.6445 11.5244V12.6045H42.1875V11.5244H46.6445ZM47.3213 7.04688V8.12695H42.1875V7.04688H47.3213ZM50.0762 9.60352V17H48.8047V9.60352H50.0762ZM48.709 7.6416C48.709 7.43652 48.7705 7.26335 48.8936 7.12207C49.0212 6.98079 49.208 6.91016 49.4541 6.91016C49.6956 6.91016 49.8802 6.98079 50.0078 7.12207C50.14 7.26335 50.2061 7.43652 50.2061 7.6416C50.2061 7.83757 50.14 8.00618 50.0078 8.14746C49.8802 8.28418 49.6956 8.35254 49.4541 8.35254C49.208 8.35254 49.0212 8.28418 48.8936 8.14746C48.7705 8.00618 48.709 7.83757 48.709 7.6416ZM53.4805 6.5V17H52.209V6.5H53.4805ZM56.7686 11.0732V17H55.4971V9.60352H56.7002L56.7686 11.0732ZM56.5088 13.0215L55.9209 13.001C55.9255 12.4951 55.9915 12.028 56.1191 11.5996C56.2467 11.1667 56.4359 10.7907 56.6865 10.4717C56.9372 10.1527 57.2493 9.90658 57.623 9.7334C57.9967 9.55566 58.4297 9.4668 58.9219 9.4668C59.2682 9.4668 59.5872 9.51693 59.8789 9.61719C60.1706 9.71289 60.4235 9.86556 60.6377 10.0752C60.8519 10.2848 61.0182 10.5537 61.1367 10.8818C61.2552 11.21 61.3145 11.6064 61.3145 12.0713V17H60.0498V12.1328C60.0498 11.7454 59.9837 11.4355 59.8516 11.2031C59.724 10.9707 59.5417 10.8021 59.3047 10.6973C59.0677 10.5879 58.7897 10.5332 58.4707 10.5332C58.097 10.5332 57.7848 10.5993 57.5342 10.7314C57.2835 10.8636 57.083 11.0459 56.9326 11.2783C56.7822 11.5107 56.6729 11.7773 56.6045 12.0781C56.5407 12.3743 56.5088 12.6888 56.5088 13.0215ZM61.3008 12.3242L60.4531 12.584C60.4577 12.1784 60.5238 11.7887 60.6514 11.415C60.7835 11.0413 60.9727 10.7087 61.2188 10.417C61.4694 10.1253 61.777 9.89518 62.1416 9.72656C62.5062 9.55339 62.9232 9.4668 63.3926 9.4668C63.7891 9.4668 64.14 9.51921 64.4453 9.62402C64.7552 9.72884 65.015 9.89062 65.2246 10.1094C65.4388 10.3236 65.6006 10.5993 65.71 10.9365C65.8193 11.2738 65.874 11.6748 65.874 12.1396V17H64.6025V12.126C64.6025 11.7113 64.5365 11.39 64.4043 11.1621C64.2767 10.9297 64.0944 10.7679 63.8574 10.6768C63.625 10.5811 63.347 10.5332 63.0234 10.5332C62.7454 10.5332 62.4993 10.5811 62.2852 10.6768C62.071 10.7725 61.891 10.9046 61.7451 11.0732C61.5993 11.2373 61.4876 11.4264 61.4102 11.6406C61.3372 11.8548 61.3008 12.0827 61.3008 12.3242ZM70.8574 17.1367C70.3424 17.1367 69.8753 17.0501 69.4561 16.877C69.0413 16.6992 68.6836 16.4508 68.3828 16.1318C68.0866 15.8128 67.8587 15.4346 67.6992 14.9971C67.5397 14.5596 67.46 14.0811 67.46 13.5615V13.2744C67.46 12.6729 67.5488 12.1374 67.7266 11.668C67.9043 11.194 68.1458 10.793 68.4512 10.4648C68.7565 10.1367 69.1029 9.88835 69.4902 9.71973C69.8776 9.55111 70.2786 9.4668 70.6934 9.4668C71.222 9.4668 71.6777 9.55794 72.0605 9.74023C72.4479 9.92253 72.7646 10.1777 73.0107 10.5059C73.2568 10.8294 73.4391 11.2122 73.5576 11.6543C73.6761 12.0918 73.7354 12.5703 73.7354 13.0898V13.6572H68.2119V12.625H72.4707V12.5293C72.4525 12.2012 72.3841 11.8822 72.2656 11.5723C72.1517 11.2624 71.9694 11.0072 71.7188 10.8066C71.4681 10.6061 71.1263 10.5059 70.6934 10.5059C70.4062 10.5059 70.1419 10.5674 69.9004 10.6904C69.6589 10.8089 69.4515 10.9867 69.2783 11.2236C69.1051 11.4606 68.9707 11.75 68.875 12.0918C68.7793 12.4336 68.7314 12.8278 68.7314 13.2744V13.5615C68.7314 13.9124 68.7793 14.2428 68.875 14.5527C68.9753 14.8581 69.1188 15.127 69.3057 15.3594C69.4971 15.5918 69.7272 15.7741 69.9961 15.9062C70.2695 16.0384 70.5794 16.1045 70.9258 16.1045C71.3724 16.1045 71.7507 16.0133 72.0605 15.8311C72.3704 15.6488 72.6416 15.4049 72.874 15.0996L73.6396 15.708C73.4801 15.9495 73.2773 16.1797 73.0312 16.3984C72.7852 16.6172 72.4821 16.7949 72.1221 16.9316C71.7666 17.0684 71.3451 17.1367 70.8574 17.1367ZM79.5186 15.0381C79.5186 14.8558 79.4775 14.6872 79.3955 14.5322C79.318 14.3727 79.1562 14.2292 78.9102 14.1016C78.6686 13.9694 78.304 13.8555 77.8164 13.7598C77.4062 13.6732 77.0348 13.5706 76.7021 13.4521C76.374 13.3337 76.0938 13.1901 75.8613 13.0215C75.6335 12.8529 75.458 12.6546 75.335 12.4268C75.2119 12.1989 75.1504 11.9323 75.1504 11.627C75.1504 11.3353 75.2142 11.0596 75.3418 10.7998C75.474 10.54 75.6585 10.3099 75.8955 10.1094C76.137 9.90885 76.4264 9.75163 76.7637 9.6377C77.1009 9.52376 77.4769 9.4668 77.8916 9.4668C78.484 9.4668 78.9899 9.57161 79.4092 9.78125C79.8285 9.99089 80.1497 10.2712 80.373 10.6221C80.5964 10.9684 80.708 11.3535 80.708 11.7773H79.4434C79.4434 11.5723 79.3818 11.374 79.2588 11.1826C79.1403 10.9867 78.9648 10.8249 78.7324 10.6973C78.5046 10.5697 78.2243 10.5059 77.8916 10.5059C77.5407 10.5059 77.2559 10.5605 77.0371 10.6699C76.8229 10.7747 76.6657 10.9092 76.5654 11.0732C76.4697 11.2373 76.4219 11.4105 76.4219 11.5928C76.4219 11.7295 76.4447 11.8525 76.4902 11.9619C76.5404 12.0667 76.627 12.1647 76.75 12.2559C76.873 12.3424 77.0462 12.4245 77.2695 12.502C77.4928 12.5794 77.7777 12.6569 78.124 12.7344C78.7301 12.8711 79.2292 13.0352 79.6211 13.2266C80.013 13.418 80.3047 13.6527 80.4961 13.9307C80.6875 14.2087 80.7832 14.5459 80.7832 14.9424C80.7832 15.266 80.7148 15.5622 80.5781 15.8311C80.446 16.0999 80.2523 16.3324 79.9971 16.5283C79.7464 16.7197 79.4456 16.8701 79.0947 16.9795C78.7484 17.0843 78.3587 17.1367 77.9258 17.1367C77.2741 17.1367 76.7227 17.0205 76.2715 16.7881C75.8203 16.5557 75.4785 16.2549 75.2461 15.8857C75.0137 15.5166 74.8975 15.127 74.8975 14.7168H76.1689C76.1872 15.0632 76.2874 15.3389 76.4697 15.5439C76.652 15.7445 76.8753 15.888 77.1396 15.9746C77.404 16.0566 77.666 16.0977 77.9258 16.0977C78.2721 16.0977 78.5615 16.0521 78.7939 15.9609C79.0309 15.8698 79.2109 15.7445 79.334 15.585C79.457 15.4255 79.5186 15.2432 79.5186 15.0381Z" fill="black"/>
</svg>
